<?xml version="1.0" standalone="no"?>
<!DOCTYPE svg PUBLIC "-//W3C//DTD SVG 20010904//EN"
 "http://www.w3.org/TR/2001/REC-SVG-20010904/DTD/svg10.dtd">
<svg version="1.0" xmlns="http://www.w3.org/2000/svg"
 width="1920.000000pt" height="1440.000000pt" viewBox="0 0 1920.000000 1440.000000"
 preserveAspectRatio="xMidYMid meet">

<g transform="translate(0.000000,1440.000000) scale(0.100000,-0.100000)"
fill="#000000" stroke="none">
<path d="M8470 8104 c-60 -11 -70 -16 -84 -42 -8 -15 -17 -50 -21 -77 -12 -88
-4 -83 -120 -87 -136 -4 -139 -7 -143 -133 -4 -94 -4 -95 26 -125 28 -28 36
-30 101 -30 39 0 71 -3 71 -6 0 -23 -123 -536 -146 -606 -5 -17 6 -18 133 -18
l138 0 52 213 c29 116 62 258 74 314 l23 101 128 4 c117 3 129 5 150 26 21 20
23 32 23 118 0 92 -1 97 -28 120 -25 22 -37 24 -124 24 l-95 0 7 79 c6 72 5
81 -14 100 -12 12 -29 21 -38 21 -10 0 -34 2 -53 4 -19 2 -46 2 -60 0z"/>
<path d="M10061 8100 c-54 -8 -78 -35 -86 -98 -14 -101 -9 -96 -124 -102 -135
-7 -141 -13 -141 -145 0 -126 10 -138 114 -143 53 -3 76 -8 76 -17 0 -28 -43
-220 -90 -403 -28 -105 -50 -197 -50 -202 0 -16 267 -13 273 3 2 6 21 80 41
162 20 83 43 175 51 205 7 30 19 82 25 115 6 33 16 77 21 97 l9 36 130 4 c165
4 164 3 168 136 3 86 1 101 -16 122 -19 23 -29 25 -124 30 -116 6 -108 -3 -93
96 6 45 4 53 -16 76 -27 30 -93 41 -168 28z"/>
<path d="M8999 7881 l-24 -19 -5 -309 -5 -308 -75 -6 c-138 -11 -215 -43 -288
-123 -36 -39 -72 -102 -72 -126 0 -5 207 -9 460 -9 l460 0 0 46 c0 39 -5 50
-34 78 -19 17 -70 47 -115 65 l-81 34 0 203 0 203 86 0 c81 0 87 1 115 29 27
28 29 34 29 111 0 90 -16 134 -52 144 -13 3 -102 6 -199 6 -159 0 -179 -2
-200 -19z"/>
<path d="M10614 7888 c-41 -19 -44 -46 -44 -353 l0 -295 -58 0 c-157 0 -292
-77 -358 -202 -13 -26 -24 -49 -24 -52 0 -2 209 -5 465 -5 l465 0 0 35 c0 43
-21 86 -52 106 -13 8 -58 29 -100 47 l-78 34 0 202 0 203 91 4 c122 4 129 12
129 148 0 95 -1 99 -26 119 -25 20 -39 21 -208 20 -103 0 -190 -5 -202 -11z"/>
</g>
</svg>
